<?xml version="1.0" encoding="utf-8"?>
<!-- Generator: Adobe Illustrator 16.0.0, SVG Export Plug-In . SVG Version: 6.00 Build 0)  -->
<!DOCTYPE svg PUBLIC "-//W3C//DTD SVG 1.1//EN" "http://www.w3.org/Graphics/SVG/1.1/DTD/svg11.dtd">
<svg version="1.1" id="Layer_1" xmlns="http://www.w3.org/2000/svg" xmlns:xlink="http://www.w3.org/1999/xlink" x="0px" y="0px"
	 width="77.518px" height="114.419px" viewBox="0 0 77.518 114.419" enable-background="new 0 0 77.518 114.419"
	 xml:space="preserve">
<g>
	<g>
		<path fill="#333333" d="M45.323,46.226H31.105V28.555h14.218V46.226z M31.787,45.545h12.855v-16.31H31.787V45.545z"/>
	</g>
	<g>
		<rect x="31.446" y="37.688" fill="#333333" width="13.537" height="0.682"/>
	</g>
	<g>
		<rect x="37.872" y="28.896" fill="#333333" width="0.683" height="16.989"/>
	</g>
	<g>
		<rect x="5.805" y="64.763" fill="#333333" width="66.25" height="0.682"/>
	</g>
	<g>
		<path fill="#333333" d="M59.51,98.384H40.238V67.533H59.51V98.384z M40.919,97.703h17.909V68.215H40.919V97.703z"/>
	</g>
	<g>
		<rect x="40.578" y="77.305" fill="#333333" width="18.592" height="1.362"/>
	</g>
	<g>
		<rect x="40.578" y="87.756" fill="#333333" width="18.592" height="0.682"/>
	</g>
	<g>
		<rect x="49.534" y="67.874" fill="#333333" width="0.683" height="30.17"/>
	</g>
	<g>
		<rect x="5.805" y="64.763" fill="#333333" width="66.25" height="0.682"/>
	</g>
	<g>
		<path fill="#333333" d="M72.395,112.736H6.158L5.343,56.798H1.261v-2.801h4.077v-1.113H2.891v-3.109l3.423-0.173L31.921,14.27
			V6.732h-2.119V4.075l3.612,0.174C34.849,2.57,36.46,1.72,38.205,1.72c2.69,0,4.801,2.022,5.295,2.537h3.942v2.639h-1.95
			l0.154,7.693l26.252,34.842h2.942v3.292h-2.119v1.601h3.752v2.475h-4.079V112.736z M6.83,112.055h64.884V56.116h4.078v-1.111
			h-3.751v-2.964h2.117v-1.93h-2.6l-0.102-0.135L44.971,14.823l-0.174-8.61h1.964V4.938h-3.562l-0.103-0.113
			c-0.021-0.026-2.185-2.424-4.892-2.424c-1.577,0-3.049,0.812-4.376,2.414L33.72,4.947l-3.236-0.156V6.05h2.118v8.441l-0.064,0.089
			L6.674,50.265l-3.102,0.158v1.779h2.447v2.477H1.942v1.438h4.072L6.83,112.055z"/>
	</g>
	<g>
		<path fill="#333333" d="M9.084,46.942L9.253,3.767h8.836v30.752L9.084,46.942z M9.933,4.448l-0.159,40.38l7.634-10.53V4.448H9.933
			z"/>
	</g>
	<g>
		<path fill="#333333" d="M39.93,98.384H28.496V67.533H39.93V98.384z M29.178,97.703h10.071V68.215H29.178V97.703z"/>
	</g>
	<g>
		<polygon fill="#333333" points="34.215,72.887 28.737,71.2 28.937,70.549 34.215,72.173 39.489,70.549 39.689,71.2 		"/>
	</g>
	<g>
		<polygon fill="#333333" points="28.954,96.025 28.72,95.385 34.199,93.392 39.683,94.945 39.497,95.601 34.226,94.106 		"/>
	</g>
	<g>
		<path fill="#333333" d="M71.182,98.384H59.748V67.533h11.434V98.384z M60.429,97.703H70.5V68.215H60.429V97.703z"/>
	</g>
	<g>
		<polygon fill="#333333" points="65.466,72.887 59.988,71.2 60.188,70.549 65.466,72.173 70.74,70.549 70.94,71.2 		"/>
	</g>
	<g>
		<polygon fill="#333333" points="60.205,96.025 59.971,95.385 65.451,93.392 70.934,94.945 70.748,95.601 65.478,94.106 		"/>
	</g>
	<g>
		<path fill="#333333" d="M27.98,107.683H10.448V71.773H27.98V107.683z M11.129,107.001H27.3V72.454H11.129V107.001z"/>
	</g>
	<g>
		<path fill="#333333" d="M27.111,72.454H11.426v-4.921h15.686V72.454z M12.107,71.773H26.43v-3.559H12.107V71.773z"/>
	</g>
	<g>
		<path fill="#333333" d="M26.567,86.262H11.971V75.547l3.963-1.032c1.06-0.722,2.145-1.088,3.224-1.088
			c1.643,0,2.756,0.844,3.046,1.09l4.363,1.023V86.262z M12.653,85.579h13.233V76.08l-4.01-0.939l-0.067-0.063
			c-0.01-0.01-1.049-0.969-2.65-0.969c-0.955,0-1.926,0.337-2.886,1.002l-0.108,0.049l-3.511,0.915V85.579z"/>
	</g>
	<g>
		<rect x="16.819" y="74.217" fill="#333333" width="0.682" height="11.704"/>
	</g>
	<g>
		<rect x="21.428" y="74.832" fill="#333333" width="0.681" height="11.089"/>
	</g>
	<g>
		<rect x="12.311" y="78.949" fill="#333333" width="13.917" height="0.683"/>
	</g>
	<g>
		<rect x="11.767" y="87.756" fill="#333333" width="14.461" height="0.682"/>
	</g>
	<g>
		<rect x="9.429" y="109.173" fill="#333333" width="19.407" height="0.682"/>
	</g>
	<g>
		<rect x="6.398" y="105.479" fill="#333333" width="4.389" height="0.681"/>
	</g>
	<g>
		<rect x="27.64" y="105.479" fill="#333333" width="44.415" height="0.681"/>
	</g>
	<g>
		<polygon fill="#333333" points="19.213,72.506 11.598,68.171 11.936,67.577 19.216,71.723 26.604,67.576 26.937,68.172 		"/>
	</g>
	<g>
		<rect x="31.275" y="20.009" fill="#333333" width="0.342" height="45.178"/>
	</g>
	<g>
		<rect x="27.469" y="25.193" fill="#333333" width="0.343" height="39.91"/>
	</g>
	<g>
		<rect x="23.937" y="30.018" fill="#333333" width="0.342" height="35.086"/>
	</g>
	<g>
		<rect x="20.513" y="34.727" fill="#333333" width="0.34" height="30.377"/>
	</g>
	<g>
		<rect x="16.99" y="39.495" fill="#333333" width="0.34" height="25.608"/>
	</g>
	<g>
		<rect x="13.417" y="44.474" fill="#333333" width="0.341" height="20.713"/>
	</g>
	<g>
		<rect x="9.259" y="50.182" fill="#333333" width="0.341" height="14.922"/>
	</g>
	<g>
		<rect x="36.168" y="5.021" fill="#333333" width="0.342" height="23.875"/>
	</g>
	<g>
		<rect x="36.168" y="45.885" fill="#333333" width="0.342" height="19.219"/>
	</g>
	<g>
		<rect x="40.407" y="4.731" fill="#333333" width="0.343" height="24.164"/>
	</g>
	<g>
		<rect x="41.06" y="45.885" fill="#333333" width="0.342" height="19.219"/>
	</g>
	<g>
		<rect x="44.812" y="18.541" fill="#333333" width="0.343" height="46.562"/>
	</g>
	<g>
		<rect x="48.073" y="22.902" fill="#333333" width="0.341" height="42.201"/>
	</g>
	<g>
		<rect x="51.987" y="28.336" fill="#333333" width="0.342" height="36.768"/>
	</g>
	<g>
		<rect x="56.228" y="34.031" fill="#333333" width="0.342" height="31.072"/>
	</g>
	<g>
		<rect x="59.917" y="38.987" fill="#333333" width="0.342" height="26.116"/>
	</g>
	<g>
		<rect x="64.954" y="45.497" fill="#333333" width="0.314" height="19.484"/>
	</g>
	<g>
		<rect x="67.623" y="49.365" fill="#333333" width="0.383" height="16.338"/>
	</g>
	<g>
		<path fill="#333333" d="M9.566,50.281l-0.275-0.2l24.75-33.961V6.654l0.041-0.048c0.087-0.101,2.114-2.452,4.724-2.452
			c0.04,0,0.08,0.001,0.12,0.002c1.498,0.041,2.868,0.869,4.071,2.458l0.036,0.045v9.134L67.95,49.266l0.002-0.001l0.287,0.39
			l-0.272,0.202l-0.001-0.001L42.691,15.906V6.774c-1.129-1.472-2.397-2.238-3.772-2.277c-0.037-0.001-0.075-0.002-0.11-0.002
			c-2.26,0-4.13,1.959-4.426,2.286v9.45l-0.033,0.044L9.566,50.281z"/>
	</g>
</g>
</svg>
