<svg id="Laag_1" data-name="Laag 1" xmlns="http://www.w3.org/2000/svg" viewBox="0 0 567.67 216.03"><defs><style>.cls-1,.cls-2,.cls-3,.cls-4,.cls-5{fill:none;stroke:#333;stroke-miterlimit:10;}.cls-1{stroke-width:2.33px;}.cls-2{stroke-width:4.67px;}.cls-3{stroke-width:1.17px;}.cls-4{stroke-width:1.08px;}.cls-5{stroke-width:1.31px;}.cls-6{fill:#7aaec4;}.cls-7{fill:#fff;}.cls-8{fill:#333;}</style></defs><title>logo_versie2</title><polygon class="cls-1" points="57.21 51.56 69.92 51.56 82.63 51.56 82.63 83.46 57.21 83.46 57.21 51.56"/><line class="cls-1" x1="57.21" y1="68.71" x2="82.63" y2="68.71"/><line class="cls-1" x1="69.92" y1="51.56" x2="69.92" y2="83.46"/><line class="cls-1" x1="9.06" y1="119.55" x2="133.46" y2="119.55"/><polygon class="cls-1" points="74.36 124.75 91.81 124.75 109.27 124.75 109.27 181.4 74.36 181.4 74.36 124.75"/><line class="cls-2" x1="74.36" y1="143.74" x2="109.27" y2="143.74"/><line class="cls-1" x1="74.36" y1="162.72" x2="109.27" y2="162.72"/><line class="cls-1" x1="91.81" y1="124.75" x2="91.81" y2="181.4"/><line class="cls-1" x1="9.06" y1="119.55" x2="133.46" y2="119.55"/><path class="cls-1" d="M10.35,208.35H133.46v-105h7.66V99.94h-7V95.66h4v-4.9h-5.21L83.24,24.92,82.93,9.61h3.67V5.93h-7s-9.49-10.72-18.37,0l-6.43-.31V9.3h4v15L10.35,91.06l-6.12.31V96H8.82v3.37H1.17v4H8.82Z"/><polygon class="cls-1" points="16.17 5.01 31.48 5.01 31.48 61.91 15.87 83.46 16.17 5.01"/><polygon class="cls-1" points="52.31 124.75 72.5 124.75 72.5 181.4 52.31 181.4 52.31 130.38 52.31 124.75"/><polyline class="cls-1" points="72.5 130.38 62.4 133.5 52.31 130.38"/><polyline class="cls-1" points="52.31 177.01 62.4 173.34 72.5 176.2"/><polygon class="cls-1" points="110.99 124.75 131.18 124.75 131.18 181.4 110.99 181.4 110.99 130.38 110.99 124.75"/><polyline class="cls-1" points="131.18 130.38 121.09 133.5 110.99 130.38"/><polyline class="cls-1" points="110.99 177.01 121.09 173.34 131.18 176.2"/><rect class="cls-1" x="18.42" y="132.71" width="31.64" height="66.15"/><rect class="cls-1" x="20.26" y="124.75" width="28.17" height="7.96"/><path class="cls-1" d="M39.55,137.82s-4.72-4.49-11.2,0l-7.07,1.84v19H47.41v-19Z"/><line class="cls-1" x1="30.38" y1="136.66" x2="30.38" y2="158.64"/><line class="cls-1" x1="39.04" y1="158.64" x2="39.04" y2="137.82"/><line class="cls-1" x1="21.28" y1="146.19" x2="47.41" y2="146.19"/><line class="cls-1" x1="20.26" y1="162.72" x2="47.41" y2="162.72"/><line class="cls-1" x1="15.86" y1="202.94" x2="52.31" y2="202.94"/><line class="cls-1" x1="10.17" y1="196.01" x2="18.42" y2="196.01"/><line class="cls-1" x1="50.06" y1="196.01" x2="133.46" y2="196.01"/><polyline class="cls-1" points="20.25 124.75 34.24 132.71 48.43 124.75"/><line class="cls-3" x1="57.21" y1="34.87" x2="57.21" y2="119.7"/><line class="cls-3" x1="50.06" y1="44.61" x2="50.06" y2="119.55"/><line class="cls-3" x1="43.43" y1="53.66" x2="43.43" y2="119.55"/><line class="cls-3" x1="37" y1="62.51" x2="37" y2="119.55"/><line class="cls-3" x1="30.38" y1="71.46" x2="30.38" y2="119.55"/><line class="cls-3" x1="23.67" y1="80.81" x2="23.67" y2="119.7"/><line class="cls-3" x1="15.86" y1="91.53" x2="15.86" y2="119.55"/><line class="cls-3" x1="66.39" y1="6.73" x2="66.39" y2="51.56"/><line class="cls-3" x1="66.39" y1="83.46" x2="66.39" y2="119.55"/><line class="cls-3" x1="74.36" y1="6.19" x2="74.36" y2="51.56"/><line class="cls-3" x1="75.58" y1="83.46" x2="75.58" y2="119.55"/><line class="cls-3" x1="82.63" y1="32.11" x2="82.63" y2="119.55"/><line class="cls-3" x1="88.75" y1="40.31" x2="88.75" y2="119.55"/><line class="cls-3" x1="96.1" y1="50.51" x2="96.1" y2="119.55"/><line class="cls-3" x1="104.06" y1="61.2" x2="104.06" y2="119.55"/><line class="cls-3" x1="110.99" y1="70.51" x2="110.99" y2="119.55"/><line class="cls-4" x1="120.42" y1="82.73" x2="120.42" y2="119.32"/><line class="cls-5" x1="125.5" y1="89.99" x2="125.5" y2="120.67"/><path class="cls-3" d="M15.86,91.53,62.4,27.67V9.91S71-.19,78.64,9.91V27.06L126,90.72,125.5,90"/><rect class="cls-6" x="160.13" y="138" width="407.53" height="78.03" rx="10.06" ry="10.06"/><path class="cls-7" d="M225.92,163.09l-13.81,27.79h-3.28l-7-27.79h2.91a1.11,1.11,0,0,1,.77.25,1,1,0,0,1,.34.62l4.65,19.86q.15.62.29,1.37t.23,1.56q.27-.81.56-1.56a12.94,12.94,0,0,1,.62-1.37L221.67,164a1.64,1.64,0,0,1,.51-.6,1.33,1.33,0,0,1,.82-.27Z"/><path class="cls-7" d="M247.27,190.88h-2.79a1.1,1.1,0,0,1-.76-.24,1.33,1.33,0,0,1-.39-.63l-1.51-6.79H230.52L227.34,190a1.71,1.71,0,0,1-.53.61,1.33,1.33,0,0,1-.8.26h-2.83l13.61-27.79h3.68Zm-6-10.3-2.54-11.5q-.1-.52-.23-1.21t-.23-1.48q-.29.81-.58,1.49l-.52,1.22-5.37,11.48Z"/><path class="cls-7" d="M258.63,175.33h1.28a2.89,2.89,0,0,0,1.11-.18,2.46,2.46,0,0,0,.84-.63L271.49,164a2.08,2.08,0,0,1,.85-.7,2.81,2.81,0,0,1,1-.17h3.08l-11.09,12a4.58,4.58,0,0,1-1.51,1.22,2.92,2.92,0,0,1,.82.51,3.11,3.11,0,0,1,.65.86l8.38,13.17h-3.12a1.84,1.84,0,0,1-1-.2,1.75,1.75,0,0,1-.5-.57L261.78,179a1.78,1.78,0,0,0-.68-.69,2.76,2.76,0,0,0-1.22-.2H258.3l-1.57,12.76h-3.61l3.39-27.79h3.63Z"/><path class="cls-7" d="M300.36,190.88h-2.79a1.1,1.1,0,0,1-.76-.24,1.33,1.33,0,0,1-.39-.63l-1.51-6.79H283.61L280.43,190a1.71,1.71,0,0,1-.53.61,1.33,1.33,0,0,1-.8.26h-2.83l13.61-27.79h3.68Zm-6-10.3-2.54-11.5q-.1-.52-.23-1.21t-.23-1.48q-.29.81-.58,1.49l-.52,1.22-5.37,11.48Z"/><path class="cls-7" d="M330.5,163.09l-3.43,27.79h-1.8a1.37,1.37,0,0,1-.72-.17,1.85,1.85,0,0,1-.52-.51l-12-21.25q0,.39-.06.73t-.06.65l-2.5,20.55h-3.2l3.41-27.79h1.88a1.54,1.54,0,0,1,.7.12,1.36,1.36,0,0,1,.45.5l12,21.23q0-.45.07-.85t.07-.76l2.5-20.24Z"/><path class="cls-7" d="M356.37,166.13h-8.18l-3.06,24.74h-3.61l3-24.74h-8.22l.35-3h20.07Z"/><path class="cls-7" d="M363.23,190.88h-3.65L363,163.09h3.65Z"/><path class="cls-7" d="M378.94,166.06l-1.14,9.37h9.83l-.37,2.85h-9.81l-1.18,9.66h12.2l-.37,2.95H372.25l3.41-27.79h15.82l-.37,3Z"/><path class="cls-7" d="M419.72,163.09l-3.43,27.79h-3.65l1.55-12.68H400.64l-1.55,12.68h-3.65l3.41-27.79h3.65L401,175.56h13.55l1.53-12.47Z"/><path class="cls-7" d="M435.58,188a6.75,6.75,0,0,0,2.87-.6,7.31,7.31,0,0,0,2.29-1.66,8.64,8.64,0,0,0,1.62-2.53,11.78,11.78,0,0,0,.84-3.22l2.08-16.93h3.63L446.83,180a14.31,14.31,0,0,1-1.26,4.43,12.49,12.49,0,0,1-2.48,3.55,11,11,0,0,1-7.89,3.21,9.59,9.59,0,0,1-4.16-.85,7.87,7.87,0,0,1-2.94-2.36,9,9,0,0,1-1.6-3.55,13,13,0,0,1-.16-4.43l2.06-16.93H432L429.94,180a10.61,10.61,0,0,0,.06,3.22,6.65,6.65,0,0,0,1,2.54,5,5,0,0,0,1.87,1.67A5.82,5.82,0,0,0,435.58,188Z"/><path class="cls-7" d="M457.84,190.88h-3.65l3.39-27.79h3.65Z"/><path class="cls-7" d="M482.93,167.4a2.27,2.27,0,0,1-.41.42.76.76,0,0,1-.47.15,1.07,1.07,0,0,1-.7-.34,9,9,0,0,0-.94-.74,7.44,7.44,0,0,0-1.39-.74,5.32,5.32,0,0,0-2-.34,5.92,5.92,0,0,0-2.21.39,4.81,4.81,0,0,0-1.64,1.06,4.52,4.52,0,0,0-1,1.56,5.22,5.22,0,0,0-.35,1.92,3,3,0,0,0,.47,1.7,4.28,4.28,0,0,0,1.22,1.18,9.25,9.25,0,0,0,1.74.87l2,.78q1,.4,2,.88a7.05,7.05,0,0,1,1.74,1.2,5.56,5.56,0,0,1,1.22,1.73,5.8,5.8,0,0,1,.47,2.44,10.25,10.25,0,0,1-.68,3.73,9.12,9.12,0,0,1-1.95,3.07,9.32,9.32,0,0,1-3.07,2.09,10.17,10.17,0,0,1-4.05.78,9.73,9.73,0,0,1-4.43-1,9,9,0,0,1-3.21-2.65l1.28-1.73a1.25,1.25,0,0,1,.39-.35,1,1,0,0,1,.5-.14,1.18,1.18,0,0,1,.79.44,12.69,12.69,0,0,0,1.09,1,7.43,7.43,0,0,0,1.63,1,5.92,5.92,0,0,0,2.42.44,6.5,6.5,0,0,0,2.41-.43,5.08,5.08,0,0,0,3-3,6.45,6.45,0,0,0,.41-2.34,3.17,3.17,0,0,0-.47-1.77,4.07,4.07,0,0,0-1.22-1.19,9,9,0,0,0-1.73-.84l-2-.73q-1-.37-2-.83a6.7,6.7,0,0,1-1.73-1.18,5.45,5.45,0,0,1-1.22-1.76,6.35,6.35,0,0,1-.47-2.58,8.83,8.83,0,0,1,.62-3.28,8.36,8.36,0,0,1,1.78-2.77,8.6,8.6,0,0,1,2.84-1.92,9.5,9.5,0,0,1,3.77-.72,8.8,8.8,0,0,1,3.84.81,7.73,7.73,0,0,1,2.81,2.23Z"/><path class="cls-7" d="M499.1,181.67a16,16,0,0,1-1,4.08,9.51,9.51,0,0,1-1.88,3,7.6,7.6,0,0,1-2.7,1.83,9.2,9.2,0,0,1-3.46.62,12.61,12.61,0,0,1-3.76-.54l.25-2.11a1.13,1.13,0,0,1,.23-.5.69.69,0,0,1,.56-.21,2.34,2.34,0,0,1,.46,0l.56.12c.21,0,.46.08.74.12a8.51,8.51,0,0,0,1,0,5.43,5.43,0,0,0,1.9-.33,4.15,4.15,0,0,0,1.6-1.09,6.34,6.34,0,0,0,1.2-2,11.82,11.82,0,0,0,.71-3l2.29-18.65h3.63Z"/><path class="cls-7" d="M513.43,166.06l-1.14,9.37h9.83l-.37,2.85h-9.81l-1.18,9.66H523l-.37,2.95H506.74l3.41-27.79H526l-.37,3Z"/><path class="cls-8" d="M217.51,80.1a31.25,31.25,0,0,1-2.92,13.63,30.21,30.21,0,0,1-7.66,10.15,34.74,34.74,0,0,1-11,6.33,37.6,37.6,0,0,1-12.67,2.15h-22.9l.55-2.44q1,0,2.72-.19a10.35,10.35,0,0,0,2.5-.48,4.36,4.36,0,0,0,2-1.46,5.65,5.65,0,0,0,.94-2.24l8.73-37.77q.11-.44.2-1a5.38,5.38,0,0,0,.09-.87,3.41,3.41,0,0,0-.28-1.42,2.21,2.21,0,0,0-1.13-1,12,12,0,0,0-2.37-.76q-1.41-.31-2.15-.43l.56-2.44H195a31.14,31.14,0,0,1,7.25.94A22.4,22.4,0,0,1,209.59,64a17.67,17.67,0,0,1,5.75,6.42A20,20,0,0,1,217.51,80.1Zm-8.69.05q0-8.29-4.44-12.88t-11.81-4.59q-1.52,0-3.15.06l-2.55.09-9.39,40.76q-.11.52-.18,1a6,6,0,0,0-.07.92,3.2,3.2,0,0,0,1.85,3.13,14.77,14.77,0,0,0,6.07.91,20.34,20.34,0,0,0,10-2.52,22.71,22.71,0,0,0,7.53-6.7,31.93,31.93,0,0,0,4.59-9.44A37.51,37.51,0,0,0,208.82,80.15Z"/><path class="cls-8" d="M252.85,82.7a9.91,9.91,0,0,1-2.46,6.74,16.68,16.68,0,0,1-7.16,4.48,54.43,54.43,0,0,1-7,2q-3.52.78-7.77,1.3,0,5.85,2.16,8.93a7.25,7.25,0,0,0,6.35,3.09,11.66,11.66,0,0,0,6.53-1.85,22.71,22.71,0,0,0,5.57-5.51l2.11,1.55a23.2,23.2,0,0,1-7.4,7.21,17.49,17.49,0,0,1-9.21,2.7q-6.55,0-10-3.67t-3.46-10.41a27.12,27.12,0,0,1,1.46-8.91,25.79,25.79,0,0,1,4.27-7.76,21.11,21.11,0,0,1,6.71-5.55A18.44,18.44,0,0,1,242.38,75q5.33,0,7.9,2.17A6.93,6.93,0,0,1,252.85,82.7ZM246,81.79a5.23,5.23,0,0,0-.41-2.27,3,3,0,0,0-1-1.24,3.43,3.43,0,0,0-1.41-.55,10.22,10.22,0,0,0-1.52-.11q-4.44,0-8.19,4.87a25.09,25.09,0,0,0-4.75,12.15q2.59-.37,5.85-1.05A21.45,21.45,0,0,0,240,91.8a11.09,11.09,0,0,0,4.57-4.08A11.28,11.28,0,0,0,246,81.79Z"/><path class="cls-8" d="M317.06,61.93a8.44,8.44,0,0,1,3.18,2.94,7.88,7.88,0,0,1,1.15,4.27,12.6,12.6,0,0,1-1.33,5.92,13.47,13.47,0,0,1-3.48,4.29,20.32,20.32,0,0,1-4.94,2.94A28.44,28.44,0,0,1,306.06,84v.33a22.93,22.93,0,0,1,4.44,1,16.62,16.62,0,0,1,4.15,2,10.4,10.4,0,0,1,3.2,3.35,9.24,9.24,0,0,1,1.24,4.87,13.94,13.94,0,0,1-1.94,7.38,16.52,16.52,0,0,1-4.91,5.2,23.41,23.41,0,0,1-6.83,3.16,27.77,27.77,0,0,1-7.5,1H272.25l.59-2.44q.89-.07,2.66-.31a10.73,10.73,0,0,0,2.55-.57,4.5,4.5,0,0,0,2-1.42,5.73,5.73,0,0,0,1-2.2l8.81-38.11q.07-.37.13-.72a4.61,4.61,0,0,0,.06-.72,2.77,2.77,0,0,0-.31-1.35,2.53,2.53,0,0,0-1.09-1,8.8,8.8,0,0,0-2.27-.87,14.69,14.69,0,0,0-2.24-.35l.59-2.44h23.16a24.64,24.64,0,0,1,4.9.46A14.69,14.69,0,0,1,317.06,61.93ZM306.8,104.36a16.4,16.4,0,0,0,2.41-4.78,17,17,0,0,0,.82-5.11,7.72,7.72,0,0,0-2.67-6.22Q304.69,86,299.86,86q-2.34,0-4,.06l-2.52.09-4.19,18.11q-.11.53-.17,1a6.89,6.89,0,0,0-.06.85,2.88,2.88,0,0,0,2,2.78,12.65,12.65,0,0,0,5,.85,13.12,13.12,0,0,0,10.9-5.34ZM309.21,79a12.91,12.91,0,0,0,2.5-4.31,16.26,16.26,0,0,0,.76-5.16,7.2,7.2,0,0,0-.71-3.33A5.7,5.7,0,0,0,309.83,64a8.17,8.17,0,0,0-2.71-1.09A15,15,0,0,0,304,62.6q-1.22,0-2.73.06l-2.54.09-4.68,20.42h4.63A15.72,15.72,0,0,0,305,82,11.31,11.31,0,0,0,309.21,79Z"/><path class="cls-8" d="M358.57,81a9.86,9.86,0,0,1-.3,2.28,6.17,6.17,0,0,1-.85,2.05A5.49,5.49,0,0,1,356,86.89a5,5,0,0,1-5.27-.46,3.08,3.08,0,0,1-1-2.22,7.17,7.17,0,0,1,.55-2.57q.56-1.42,1.15-2.83a7.28,7.28,0,0,0-1.46.24,12.23,12.23,0,0,0-2.46.94,19.72,19.72,0,0,0-3.27,2.11,28.89,28.89,0,0,0-3.89,3.74l-6,26.52h-6.9l5.4-24q.18-.89.54-2.67a15.13,15.13,0,0,0,.35-2.63,4,4,0,0,0-.7-2.78,4.06,4.06,0,0,0-2.81-.7,10,10,0,0,0-2.07.28q-1.26.28-2,.46l.56-2.37a38.12,38.12,0,0,1,5.1-1.92,14.34,14.34,0,0,1,3.81-.63q3,0,4.22,1.61a7.77,7.77,0,0,1,1.26,4.83h.22A75.86,75.86,0,0,1,348,76.51,8.44,8.44,0,0,1,352.8,75a8.87,8.87,0,0,1,2.29.3,4.5,4.5,0,0,1,1.89,1,4.85,4.85,0,0,1,1.2,1.79A8.62,8.62,0,0,1,358.57,81Z"/><path class="cls-8" d="M384.78,107.18h-.22q-1.7,1.37-3.26,2.52a22.34,22.34,0,0,1-3.07,1.92A17.54,17.54,0,0,1,375,112.9a15,15,0,0,1-3.77.39,7.26,7.26,0,0,1-5.51-2.05,7.47,7.47,0,0,1-2-5.38,17.83,17.83,0,0,1,.15-2.11q.15-1.22.7-3.63l2.87-11.73q.37-1.63.61-2.89a12.82,12.82,0,0,0,.24-2.4,4,4,0,0,0-.68-2.76,4.06,4.06,0,0,0-2.79-.68,9,9,0,0,0-2.07.31l-2,.5.55-2.38a43.26,43.26,0,0,1,5.09-2,12.82,12.82,0,0,1,3.53-.67,5.94,5.94,0,0,1,4.35,1.39,5.33,5.33,0,0,1,1.39,3.94,15.07,15.07,0,0,1-.15,1.81,18.93,18.93,0,0,1-.44,2.29l-3.26,13.69q-.37,1.55-.61,2.9a12.71,12.71,0,0,0-.24,2.05,6.44,6.44,0,0,0,1.07,3.92,4,4,0,0,0,3.4,1.44,10.88,10.88,0,0,0,4.86-1.24,19.44,19.44,0,0,0,5-3.76L391.82,76l6.45-.44.45.56L393.22,100q-.37,1.52-.66,3.05a13.42,13.42,0,0,0-.3,2.16,3.62,3.62,0,0,0,.9,2.87,4.7,4.7,0,0,0,3,.76,12.7,12.7,0,0,0,2-.22,11.86,11.86,0,0,0,2-.48l-.55,2.37q-3.07,1.26-5.12,1.89a13,13,0,0,1-3.79.63,5.49,5.49,0,0,1-4.46-1.74A6.13,6.13,0,0,1,384.78,107.18Z"/><path class="cls-8" d="M423,108.33l-.55,2.37A48.91,48.91,0,0,1,417,112.6a14,14,0,0,1-3.48.54,5.89,5.89,0,0,1-4.44-1.54,5.26,5.26,0,0,1-1.48-3.8,11.24,11.24,0,0,1,.15-1.78q.15-.93.48-2.33L412.11,88q.3-1.29.57-2.78a14,14,0,0,0,.28-2.52,4,4,0,0,0-.68-2.76,4.06,4.06,0,0,0-2.79-.69,12.12,12.12,0,0,0-2.16.26q-1.35.26-2,.44l.56-2.37A36.36,36.36,0,0,1,411,75.62a14.62,14.62,0,0,1,3.62-.63,5.83,5.83,0,0,1,4.4,1.44,5.42,5.42,0,0,1,1.37,3.89,15.09,15.09,0,0,1-.15,1.81,18.9,18.9,0,0,1-.44,2.3l-3.93,15.74q-.37,1.44-.64,2.83a12.19,12.19,0,0,0-.28,2.28,3.61,3.61,0,0,0,.94,2.89,4.77,4.77,0,0,0,3,.78,15.44,15.44,0,0,0,2-.19A10.24,10.24,0,0,0,423,108.33ZM425.59,61a5.43,5.43,0,0,1-1.37,3.68,4.33,4.33,0,0,1-3.4,1.57,4.27,4.27,0,0,1-3.26-1.5,4.93,4.93,0,0,1-1.37-3.42,5.13,5.13,0,0,1,1.37-3.55,4.24,4.24,0,0,1,3.26-1.52,4.5,4.5,0,0,1,3.44,1.42A4.7,4.7,0,0,1,425.59,61Z"/><path class="cls-8" d="M468,108.07l-.56,2.37q-3.34,1.33-5.2,1.94a11.93,11.93,0,0,1-3.75.61,5.93,5.93,0,0,1-4.46-1.54,5.25,5.25,0,0,1-1.48-3.8,12.09,12.09,0,0,1,.15-1.8q.15-1,.48-2.32l3.65-13.81q.41-1.59.65-2.89a12,12,0,0,0,.24-2.07,6,6,0,0,0-1.18-3.93,4.23,4.23,0,0,0-3.49-1.44,10.92,10.92,0,0,0-5,1.48,18.65,18.65,0,0,0-5.25,4.3l-6.32,27.18h-6.91l5.55-24,.54-2.57a14,14,0,0,0,.35-2.72,4,4,0,0,0-.7-2.78,4.09,4.09,0,0,0-2.82-.7,10.11,10.11,0,0,0-2.08.28q-1.26.28-2,.46L429,78A38.49,38.49,0,0,1,434.1,76a14.49,14.49,0,0,1,3.83-.63q2.94,0,4.2,1.59a7.23,7.23,0,0,1,1.34,4.41h.22a47.21,47.21,0,0,1,7-4.83A14,14,0,0,1,457.41,75,7.34,7.34,0,0,1,462.93,77a7.42,7.42,0,0,1,2,5.39q0,.67-.2,2.37a24.27,24.27,0,0,1-.65,3.37L461,100.07q-.33,1.19-.65,2.72a12.78,12.78,0,0,0-.31,2.39,3.58,3.58,0,0,0,.93,2.87,4.8,4.8,0,0,0,3,.76,12.08,12.08,0,0,0,2-.24A12.8,12.8,0,0,0,468,108.07Z"/><path class="cls-8" d="M509,81.84a40.43,40.43,0,0,1-1.7,11.42,35.59,35.59,0,0,1-4.66,10.13,26.23,26.23,0,0,1-7.14,7.28,15.94,15.94,0,0,1-9.1,2.8,10.9,10.9,0,0,1-7.73-2.68,9.36,9.36,0,0,1-2.89-7.2,10.43,10.43,0,0,1,.2-1.93q.2-1.07.28-1.44l3.22-11.85q.37-1.44.65-2.83a12.6,12.6,0,0,0,.28-2.43,3.93,3.93,0,0,0-.72-2.78,4.14,4.14,0,0,0-2.83-.7,9.67,9.67,0,0,0-2.11.32l-2,.5.55-2.35a48,48,0,0,1,5.13-2,12.77,12.77,0,0,1,3.57-.7,6.13,6.13,0,0,1,4.39,1.37,5.24,5.24,0,0,1,1.43,4,15.14,15.14,0,0,1-.13,1.8,17.44,17.44,0,0,1-.46,2.31l-3.56,13.81a23.92,23.92,0,0,0-.56,2.7,15.78,15.78,0,0,0-.19,1.67,6.93,6.93,0,0,0,.61,3.13,5.06,5.06,0,0,0,1.54,1.87,5.67,5.67,0,0,0,1.94.89,9,9,0,0,0,2.16.26,10.18,10.18,0,0,0,5.2-1.59,16.77,16.77,0,0,0,4.68-4.15,24.1,24.1,0,0,0,3.51-6.2,20.74,20.74,0,0,0,1.33-7.57,7.74,7.74,0,0,0-.61-3.43,11.14,11.14,0,0,0-1.35-2.09,17.68,17.68,0,0,1-1.35-1.94,5.61,5.61,0,0,1-.61-2.87,3.86,3.86,0,0,1,1.41-3.22,4.7,4.7,0,0,1,3-1.11,4,4,0,0,1,3.42,1.76A8.79,8.79,0,0,1,509,81.84Z"/><path class="cls-8" d="M532.09,108.33l-.55,2.37a48.91,48.91,0,0,1-5.44,1.91,14,14,0,0,1-3.48.54,5.89,5.89,0,0,1-4.44-1.54,5.26,5.26,0,0,1-1.48-3.8,11.24,11.24,0,0,1,.15-1.78q.15-.93.48-2.33L521.24,88q.3-1.29.57-2.78a14,14,0,0,0,.28-2.52,4,4,0,0,0-.68-2.76,4.06,4.06,0,0,0-2.79-.69,12.12,12.12,0,0,0-2.16.26q-1.35.26-2,.44l.56-2.37a36.36,36.36,0,0,1,5.18-1.92,14.62,14.62,0,0,1,3.62-.63,5.83,5.83,0,0,1,4.4,1.44,5.42,5.42,0,0,1,1.37,3.89,15.09,15.09,0,0,1-.15,1.81,18.9,18.9,0,0,1-.44,2.3L525,100.18q-.37,1.44-.64,2.83a12.19,12.19,0,0,0-.28,2.28,3.61,3.61,0,0,0,.94,2.89,4.77,4.77,0,0,0,3,.78,15.44,15.44,0,0,0,2-.19A10.24,10.24,0,0,0,532.09,108.33ZM534.72,61a5.43,5.43,0,0,1-1.37,3.68,4.33,4.33,0,0,1-3.4,1.57,4.27,4.27,0,0,1-3.26-1.5,4.93,4.93,0,0,1-1.37-3.42,5.13,5.13,0,0,1,1.37-3.55,4.24,4.24,0,0,1,3.26-1.52,4.5,4.5,0,0,1,3.44,1.42A4.7,4.7,0,0,1,534.72,61Z"/><path class="cls-8" d="M548,113.47a19.24,19.24,0,0,1-9.12-1.94q-3.64-1.94-3.64-5.09a4.27,4.27,0,0,1,1.07-2.78,3.29,3.29,0,0,1,2.63-1.29,3.86,3.86,0,0,1,2.39.68,5.2,5.2,0,0,1,1.42,1.61,11.78,11.78,0,0,1,1,2.29q.43,1.33.72,2.18a5.6,5.6,0,0,0,1.54,1.17,6,6,0,0,0,2.83.54q4,0,6-2a7.22,7.22,0,0,0,2.05-5.42,4.84,4.84,0,0,0-1.92-4,19.4,19.4,0,0,0-5.73-2.76A25,25,0,0,1,546,95.29a12.15,12.15,0,0,1-3-1.95,9.28,9.28,0,0,1-2.15-2.82,8.54,8.54,0,0,1-.81-3.86,10.33,10.33,0,0,1,4.24-8.21A15.91,15.91,0,0,1,554.78,75q1.44,0,3.11.15a16.24,16.24,0,0,1,3.66.81,7.91,7.91,0,0,1,3,1.76,4,4,0,0,1,1.22,3,4.24,4.24,0,0,1-1,2.76A3.3,3.3,0,0,1,562,84.72a4,4,0,0,1-2.26-.59,4.84,4.84,0,0,1-1.48-1.59,10.52,10.52,0,0,1-1-2.15q-.37-1.15-.81-2.26a6.64,6.64,0,0,0-1.26-.41,7.86,7.86,0,0,0-1.48-.11,7.27,7.27,0,0,0-5.49,1.95,6.45,6.45,0,0,0-1.87,4.62,4.66,4.66,0,0,0,1.68,3.91,21.25,21.25,0,0,0,5.57,2.72A19.4,19.4,0,0,1,561,95a8,8,0,0,1,2.27,5.78,11.3,11.3,0,0,1-4.33,9.17A16.68,16.68,0,0,1,548,113.47Z"/></svg>