<svg id="Laag_1" data-name="Laag 1" xmlns="http://www.w3.org/2000/svg" viewBox="0 0 61 66"><defs><style>.cls-1{fill:#7aaec4;}</style></defs><title>nederlandsevlag</title><path class="cls-1" d="M30.15,36.07l-6.65-5.83-19,16.28a3.8,3.8,0,0,0,2.64,1.05h46a3.8,3.8,0,0,0,2.64-1.05l-19-16.28Zm0,0"/><path class="cls-1" d="M55.78,10.24a3.76,3.76,0,0,0-2.64-1.05h-46a3.83,3.83,0,0,0-2.64,1.05l25.66,22Zm0,0"/><path class="cls-1" d="M3.27,12.57V44.45L21.82,28.68Zm0,0"/><path class="cls-1" d="M38.45,28.68,57,44.45V12.55Zm0,0"/></svg>