<?xml version="1.0" encoding="UTF-8" standalone="no"?>
<svg width="65px" height="65px" viewBox="0 0 65 65" version="1.1" xmlns="http://www.w3.org/2000/svg" xmlns:xlink="http://www.w3.org/1999/xlink">
    <!-- Generator: Sketch 42 (36781) - http://www.bohemiancoding.com/sketch -->
    <title>phone</title>
    <desc>Created with Sketch.</desc>
    <defs></defs>
    <g id="Page-1" stroke="none" stroke-width="1" fill="none" fill-rule="evenodd">
        <path d="M55.3746893,45.8165787 C55.4776146,46.525175 55.2270852,47.2392824 54.7042645,47.7275527 L48.3671531,54.02817 C48.0498903,54.3646644 47.6704042,54.636217 47.2497783,54.8277407 C46.8224358,55.0408898 46.3647541,55.1865345 45.892966,55.2595089 L45.6056411,55.2595089 L44.9831037,55.2595089 C44.000871,55.2212723 43.0223031,55.1170944 42.0539855,54.9476763 C40.3449352,54.6532647 38.6761468,54.1595033 37.0816676,53.4764662 C34.7591722,52.4636569 32.533812,51.2405693 30.4332875,49.822428 C27.5712616,47.8768231 24.9203498,45.6364831 22.5238702,43.1380168 C20.517575,41.1892147 18.6706378,39.0822451 17.0008462,36.8373995 C15.6889985,35.0612875 14.5098871,33.1905337 13.4731343,31.2404044 C12.6763388,29.7565454 12.0061881,28.2078593 11.4698409,26.6108899 C11.0902467,25.4562595 10.7967935,24.2749749 10.5919036,23.0767873 C10.4466384,22.2858435 10.3824549,21.4820958 10.4003536,20.6780752 C10.4322786,20.1077148 10.4482411,19.7905517 10.4482411,19.726586 C10.5210836,19.2539433 10.6664648,18.7954324 10.8792285,18.3673158 C11.070406,17.9459278 11.3414675,17.5657543 11.6773534,17.2479168 L18.0144648,10.8993252 C18.4100644,10.4902499 18.9543814,10.2594337 19.5229207,10.2596687 C19.9172086,10.2543706 20.3019943,10.380989 20.6163518,10.6194755 C20.9330676,10.8621357 21.2034464,11.1600912 21.4144766,11.4990033 L26.5464195,21.1578176 C26.8322505,21.6651775 26.9176922,22.2614998 26.7858569,22.8289204 C26.6761234,23.4057459 26.3984168,23.9371265 25.9877321,24.3561005 L23.641245,26.7548127 C23.5628106,26.8448984 23.505537,26.9514563 23.4736388,27.0666452 C23.4311669,27.1821098 23.4069318,27.3035045 23.4018075,27.4264521 C23.5765098,28.2255052 23.8640693,28.9955147 24.2558011,29.7132243 C24.7698419,30.6882657 25.3596112,31.6213082 26.0196571,32.5037262 C27.042196,33.8577346 28.1740173,35.1253176 29.4037065,36.2936914 C30.5784483,37.5330422 31.8516454,38.6748451 33.210762,39.7078584 C34.0930303,40.3741054 35.0241509,40.9728127 35.9962178,41.4988968 C36.5370277,41.8015224 37.1134894,42.0352108 37.7121862,42.1945233 L38.3107799,42.3144589 C38.4173905,42.3052091 38.5221728,42.2809847 38.6220486,42.2424976 C38.7370292,42.2105415 38.8433945,42.1531642 38.9333173,42.0745877 L41.6469418,39.308073 C42.1884748,38.7953432 42.9051182,38.5093106 43.6502352,38.5085023 C44.0965837,38.4872098 44.5404277,38.5866343 44.9352162,38.7963477 L44.9831037,38.7963477 L54.1775021,44.2334287 C54.786771,44.5683245 55.2207406,45.1518894 55.3667081,45.8325701 L55.3746893,45.8165787 Z" id="Shape" fill="#7AAEC4" fill-rule="nonzero"></path>
    </g>
</svg>