<svg id="Laag_1" data-name="Laag 1" xmlns="http://www.w3.org/2000/svg" xmlns:xlink="http://www.w3.org/1999/xlink" viewBox="0 0 61 66"><defs><style>.cls-1{fill:none;}.cls-2{clip-path:url(#clip-path);}.cls-3{fill:#7aaec4;}</style><clipPath id="clip-path"><rect class="cls-1" x="2.56" y="4.37" width="56.44" height="56.44"/></clipPath></defs><title>nederlandsevlag</title><g class="cls-2"><path class="cls-3" d="M58.92,48.84a2.73,2.73,0,0,1-.84,2.39l-7.94,7.88a4.47,4.47,0,0,1-1.4,1,5.8,5.8,0,0,1-1.7.54l-.36,0q-.3,0-.78,0a27.55,27.55,0,0,1-3.67-.39A27.85,27.85,0,0,1,36,58.42a52.15,52.15,0,0,1-8.33-4.57,62.11,62.11,0,0,1-9.91-8.36,65.44,65.44,0,0,1-6.92-7.88,56.12,56.12,0,0,1-4.42-7,37.39,37.39,0,0,1-2.51-5.79A30.7,30.7,0,0,1,2.81,20.4a14.76,14.76,0,0,1-.24-3q.06-1.07.06-1.19a5.8,5.8,0,0,1,.54-1.7,4.47,4.47,0,0,1,1-1.4l7.94-7.94A2.63,2.63,0,0,1,14,4.37a2.22,2.22,0,0,1,1.37.45,4.15,4.15,0,0,1,1,1.1L22.8,18a2.91,2.91,0,0,1,.3,2.09,3.72,3.72,0,0,1-1,1.91L19.16,25a1,1,0,0,0-.21.39,1.48,1.48,0,0,0-.09.45,10.76,10.76,0,0,0,1.07,2.86,26.31,26.31,0,0,0,2.21,3.49,38.78,38.78,0,0,0,4.24,4.74,39.51,39.51,0,0,0,4.77,4.27,27.56,27.56,0,0,0,3.49,2.24,9.31,9.31,0,0,0,2.15.87l.75.15a1.43,1.43,0,0,0,.39-.09,1,1,0,0,0,.39-.21l3.4-3.46a3.66,3.66,0,0,1,2.51-1,3.12,3.12,0,0,1,1.61.36h.06l11.52,6.8a3,3,0,0,1,1.49,2Zm0,0"/></g></svg>