<?xml version="1.0" encoding="UTF-8" standalone="no"?>
<svg width="568px" height="218px" viewBox="0 0 568 218" version="1.1" xmlns="http://www.w3.org/2000/svg" xmlns:xlink="http://www.w3.org/1999/xlink">
    <!-- Generator: Sketch 42 (36781) - http://www.bohemiancoding.com/sketch -->
    <title>logo</title>
    <desc>Created with Sketch.</desc>
    <defs></defs>
    <g id="Page-1" stroke="none" stroke-width="1" fill="none" fill-rule="evenodd">
        <g id="logo" transform="translate(1.000000, 2.000000)">
            <polygon id="Shape" stroke="#333333" stroke-width="2.33" points="56.21 50.56 68.92 50.56 81.63 50.56 81.63 82.46 56.21 82.46"></polygon>
            <path d="M56.21,67.71 L81.63,67.71" id="Shape" stroke="#333333" stroke-width="2.33"></path>
            <path d="M68.92,50.56 L68.92,82.46" id="Shape" stroke="#333333" stroke-width="2.33"></path>
            <path d="M8.06,118.55 L132.46,118.55" id="Shape" stroke="#333333" stroke-width="2.33"></path>
            <polygon id="Shape" stroke="#333333" stroke-width="2.33" points="73.36 123.75 90.81 123.75 108.27 123.75 108.27 180.4 73.36 180.4"></polygon>
            <path d="M73.36,142.74 L108.27,142.74" id="Shape" stroke="#333333" stroke-width="4.67"></path>
            <path d="M73.36,161.72 L108.27,161.72" id="Shape" stroke="#333333" stroke-width="2.33"></path>
            <path d="M90.81,123.75 L90.81,180.4" id="Shape" stroke="#333333" stroke-width="2.33"></path>
            <path d="M8.06,118.55 L132.46,118.55" id="Shape" stroke="#333333" stroke-width="2.33"></path>
            <path d="M9.35,207.35 L132.46,207.35 L132.46,102.35 L140.12,102.35 L140.12,98.94 L133.12,98.94 L133.12,94.66 L137.12,94.66 L137.12,89.76 L131.91,89.76 L82.24,23.92 L81.93,8.61 L85.6,8.61 L85.6,4.93 L78.6,4.93 C78.6,4.93 69.11,-5.79 60.23,4.93 L53.8,4.62 L53.8,8.3 L57.8,8.3 L57.8,23.3 L9.35,90.06 L3.23,90.37 L3.23,95 L7.82,95 L7.82,98.37 L0.17,98.37 L0.17,102.37 L7.82,102.37 L9.35,207.35 Z" id="Shape" stroke="#333333" stroke-width="2.33"></path>
            <polygon id="Shape" stroke="#333333" stroke-width="2.33" points="15.17 4.01 30.48 4.01 30.48 60.91 14.87 82.46"></polygon>
            <polygon id="Shape" stroke="#333333" stroke-width="2.33" points="51.31 123.75 71.5 123.75 71.5 180.4 51.31 180.4 51.31 129.38"></polygon>
            <polyline id="Shape" stroke="#333333" stroke-width="2.33" points="71.5 129.38 61.4 132.5 51.31 129.38"></polyline>
            <polyline id="Shape" stroke="#333333" stroke-width="2.33" points="51.31 176.01 61.4 172.34 71.5 175.2"></polyline>
            <polygon id="Shape" stroke="#333333" stroke-width="2.33" points="109.99 123.75 130.18 123.75 130.18 180.4 109.99 180.4 109.99 129.38"></polygon>
            <polyline id="Shape" stroke="#333333" stroke-width="2.33" points="130.18 129.38 120.09 132.5 109.99 129.38"></polyline>
            <polyline id="Shape" stroke="#333333" stroke-width="2.33" points="109.99 176.01 120.09 172.34 130.18 175.2"></polyline>
            <rect id="Rectangle-path" stroke="#333333" stroke-width="2.33" x="17.42" y="131.71" width="31.64" height="66.15"></rect>
            <rect id="Rectangle-path" stroke="#333333" stroke-width="2.33" x="19.26" y="123.75" width="28.17" height="7.96"></rect>
            <path d="M38.55,136.82 C38.55,136.82 33.83,132.33 27.35,136.82 L20.28,138.66 L20.28,157.66 L46.41,157.66 L46.41,138.66 L38.55,136.82 Z" id="Shape" stroke="#333333" stroke-width="2.33"></path>
            <path d="M29.38,135.66 L29.38,157.64" id="Shape" stroke="#333333" stroke-width="2.33"></path>
            <path d="M38.04,157.64 L38.04,136.82" id="Shape" stroke="#333333" stroke-width="2.33"></path>
            <path d="M20.28,145.19 L46.41,145.19" id="Shape" stroke="#333333" stroke-width="2.33"></path>
            <path d="M19.26,161.72 L46.41,161.72" id="Shape" stroke="#333333" stroke-width="2.33"></path>
            <path d="M14.86,201.94 L51.31,201.94" id="Shape" stroke="#333333" stroke-width="2.33"></path>
            <path d="M9.17,195.01 L17.42,195.01" id="Shape" stroke="#333333" stroke-width="2.33"></path>
            <path d="M49.06,195.01 L132.46,195.01" id="Shape" stroke="#333333" stroke-width="2.33"></path>
            <polyline id="Shape" stroke="#333333" stroke-width="2.33" points="19.25 123.75 33.24 131.71 47.43 123.75"></polyline>
            <path d="M56.21,33.87 L56.21,118.7" id="Shape" stroke="#333333" stroke-width="1.17"></path>
            <path d="M49.06,43.61 L49.06,118.55" id="Shape" stroke="#333333" stroke-width="1.17"></path>
            <path d="M42.43,52.66 L42.43,118.55" id="Shape" stroke="#333333" stroke-width="1.17"></path>
            <path d="M36,61.51 L36,118.55" id="Shape" stroke="#333333" stroke-width="1.17"></path>
            <path d="M29.38,70.46 L29.38,118.55" id="Shape" stroke="#333333" stroke-width="1.17"></path>
            <path d="M22.67,79.81 L22.67,118.7" id="Shape" stroke="#333333" stroke-width="1.17"></path>
            <path d="M14.86,90.53 L14.86,118.55" id="Shape" stroke="#333333" stroke-width="1.17"></path>
            <path d="M65.39,5.73 L65.39,50.56" id="Shape" stroke="#333333" stroke-width="1.17"></path>
            <path d="M65.39,82.46 L65.39,118.55" id="Shape" stroke="#333333" stroke-width="1.17"></path>
            <path d="M73.36,5.19 L73.36,50.56" id="Shape" stroke="#333333" stroke-width="1.17"></path>
            <path d="M74.58,82.46 L74.58,118.55" id="Shape" stroke="#333333" stroke-width="1.17"></path>
            <path d="M81.63,31.11 L81.63,118.55" id="Shape" stroke="#333333" stroke-width="1.17"></path>
            <path d="M87.75,39.31 L87.75,118.55" id="Shape" stroke="#333333" stroke-width="1.17"></path>
            <path d="M95.1,49.51 L95.1,118.55" id="Shape" stroke="#333333" stroke-width="1.17"></path>
            <path d="M103.06,60.2 L103.06,118.55" id="Shape" stroke="#333333" stroke-width="1.17"></path>
            <path d="M109.99,69.51 L109.99,118.55" id="Shape" stroke="#333333" stroke-width="1.17"></path>
            <path d="M119.42,81.73 L119.42,118.32" id="Shape" stroke="#333333" stroke-width="1.08"></path>
            <path d="M124.5,88.99 L124.5,119.67" id="Shape" stroke="#333333" stroke-width="1.31"></path>
            <path d="M14.86,90.53 L61.4,26.67 L61.4,8.91 C61.4,8.91 70,-1.19 77.64,8.91 L77.64,26.06 L125,89.72 L124.5,89" id="Shape" stroke="#333333" stroke-width="1.17"></path>
            <rect id="Rectangle-path" fill="#7AAEC4" fill-rule="nonzero" x="159.13" y="137" width="407.53" height="78.03" rx="10.06"></rect>
            <path d="M224.92,162.09 L211.11,189.88 L207.83,189.88 L200.83,162.09 L203.74,162.09 C204.018987,162.073425 204.293959,162.162702 204.51,162.34 C204.695057,162.498364 204.815955,162.718823 204.85,162.96 L209.5,182.82 C209.6,183.233333 209.696667,183.69 209.79,184.19 C209.883333,184.69 209.96,185.21 210.02,185.75 C210.2,185.21 210.386667,184.69 210.58,184.19 C210.759935,183.721701 210.966951,183.264262 211.2,182.82 L220.67,163 C220.788748,162.761549 220.963794,162.555612 221.18,162.4 C221.415707,162.221325 221.704248,162.126318 222,162.13 L224.92,162.09 Z" id="Shape" fill="#FFFFFF" fill-rule="nonzero"></path>
            <path d="M246.27,189.88 L243.48,189.88 C243.205573,189.897814 242.934426,189.812189 242.72,189.64 C242.532948,189.471182 242.397699,189.252703 242.33,189.01 L240.82,182.22 L229.52,182.22 L226.34,189 C226.214604,189.242756 226.032864,189.451929 225.81,189.61 C225.578485,189.780935 225.297773,189.872166 225.01,189.87 L222.18,189.87 L235.79,162.08 L239.47,162.08 L246.27,189.88 Z M240.27,179.58 L237.73,168.08 C237.663333,167.733333 237.586667,167.33 237.5,166.87 C237.413333,166.41 237.336667,165.916667 237.27,165.39 C237.076667,165.93 236.883333,166.426667 236.69,166.88 L236.17,168.1 L230.8,179.58 L240.27,179.58 Z" id="Shape" fill="#FFFFFF" fill-rule="nonzero"></path>
            <path d="M257.63,174.33 L258.91,174.33 C259.288217,174.343257 259.665355,174.282099 260.02,174.15 C260.342076,174.0029 260.628602,173.788005 260.86,173.52 L270.49,163 C270.705305,162.694544 270.998928,162.452737 271.34,162.3 C271.660261,162.183141 271.999114,162.125536 272.34,162.13 L275.42,162.13 L264.33,174.13 C263.919623,174.639891 263.404725,175.055901 262.82,175.35 C263.119744,175.473312 263.396866,175.645669 263.64,175.86 C263.905077,176.106644 264.125047,176.397681 264.29,176.72 L272.67,189.89 L269.55,189.89 C269.204481,189.918883 268.857832,189.849554 268.55,189.69 C268.343681,189.538823 268.173009,189.344257 268.05,189.12 L260.78,178 C260.621485,177.711556 260.3861,177.472709 260.1,177.31 C259.713688,177.15194 259.296558,177.083558 258.88,177.11 L257.3,177.11 L255.73,189.87 L252.12,189.87 L255.51,162.08 L259.14,162.08 L257.63,174.33 Z" id="Shape" fill="#FFFFFF" fill-rule="nonzero"></path>
            <path d="M299.36,189.88 L296.57,189.88 C296.295573,189.897814 296.024426,189.812189 295.81,189.64 C295.622948,189.471182 295.487699,189.252703 295.42,189.01 L293.91,182.22 L282.61,182.22 L279.43,189 C279.304604,189.242756 279.122864,189.451929 278.9,189.61 C278.668485,189.780935 278.387773,189.872166 278.1,189.87 L275.27,189.87 L288.88,162.08 L292.56,162.08 L299.36,189.88 Z M293.36,179.58 L290.82,168.08 C290.753333,167.733333 290.676667,167.33 290.59,166.87 C290.503333,166.41 290.426667,165.916667 290.36,165.39 C290.166667,165.93 289.973333,166.426667 289.78,166.88 L289.26,168.1 L283.89,179.58 L293.36,179.58 Z" id="Shape" fill="#FFFFFF" fill-rule="nonzero"></path>
            <path d="M329.5,162.09 L326.07,189.88 L324.27,189.88 C324.018952,189.890431 323.76987,189.83162 323.55,189.71 C323.344584,189.576138 323.167825,189.402779 323.03,189.2 L311.03,167.95 C311.03,168.21 311.01,168.453333 310.97,168.68 C310.93,168.906667 310.91,169.123333 310.91,169.33 L308.41,189.88 L305.21,189.88 L308.62,162.09 L310.5,162.09 C310.739496,162.074915 310.979203,162.116008 311.2,162.21 C311.389502,162.336356 311.544235,162.508281 311.65,162.71 L323.65,183.94 C323.65,183.64 323.673333,183.356667 323.72,183.09 C323.766667,182.823333 323.79,182.57 323.79,182.33 L326.29,162.09 L329.5,162.09 Z" id="Shape" fill="#FFFFFF" fill-rule="nonzero"></path>
            <polygon id="Shape" fill="#FFFFFF" fill-rule="nonzero" points="355.37 165.13 347.19 165.13 344.13 189.87 340.52 189.87 343.52 165.13 335.3 165.13 335.65 162.13 355.72 162.13"></polygon>
            <polygon id="Shape" fill="#FFFFFF" fill-rule="nonzero" points="362.23 189.88 358.58 189.88 362 162.09 365.65 162.09"></polygon>
            <polygon id="Shape" fill="#FFFFFF" fill-rule="nonzero" points="377.94 165.06 376.8 174.43 386.63 174.43 386.26 177.28 376.45 177.28 375.27 186.94 387.47 186.94 387.1 189.89 371.25 189.89 374.66 162.1 390.48 162.1 390.11 165.1"></polygon>
            <polygon id="Shape" fill="#FFFFFF" fill-rule="nonzero" points="418.72 162.09 415.29 189.88 411.64 189.88 413.19 177.2 399.64 177.2 398.09 189.88 394.44 189.88 397.85 162.09 401.5 162.09 400 174.56 413.55 174.56 415.08 162.09"></polygon>
            <path d="M434.58,187 C435.569073,187.012703 436.548852,186.807871 437.45,186.4 C438.314122,186.001025 439.092014,185.437139 439.74,184.74 C440.423599,183.997739 440.971886,183.141465 441.36,182.21 C441.790957,181.181822 442.073779,180.097674 442.2,178.99 L444.28,162.06 L447.91,162.06 L445.83,179 C445.651948,180.535013 445.226438,182.031052 444.57,183.43 C443.956344,184.748708 443.117065,185.950095 442.09,186.98 C439.997824,189.066189 437.154369,190.223032 434.2,190.19 C432.767241,190.221053 431.345738,189.930602 430.04,189.34 C428.883269,188.803148 427.874321,187.993244 427.1,186.98 C426.314001,185.927602 425.767888,184.715913 425.5,183.43 C425.193438,181.973384 425.139318,180.474937 425.34,179 L427.4,162.07 L431,162.07 L428.94,179 C428.796035,180.070133 428.816268,181.155973 429,182.22 C429.154103,183.126708 429.494609,183.991594 430,184.76 C430.471388,185.466448 431.114953,186.041183 431.87,186.43 C432.714314,186.835277 433.643963,187.030812 434.58,187 Z" id="Shape" fill="#FFFFFF" fill-rule="nonzero"></path>
            <polygon id="Shape" fill="#FFFFFF" fill-rule="nonzero" points="456.84 189.88 453.19 189.88 456.58 162.09 460.23 162.09"></polygon>
            <path d="M481.93,166.4 C481.812085,166.557153 481.674267,166.698333 481.52,166.82 C481.384373,166.920874 481.218988,166.973656 481.05,166.97 C480.782263,166.948542 480.532389,166.827175 480.35,166.63 C480.053426,166.362758 479.739399,166.115546 479.41,165.89 C478.974149,165.594857 478.508206,165.346801 478.02,165.15 C477.381314,164.909428 476.702304,164.793996 476.02,164.81 C475.265206,164.797906 474.515063,164.930284 473.81,165.2 C473.196607,165.437483 472.63844,165.798249 472.17,166.26 C471.732511,166.705361 471.392024,167.236521 471.17,167.82 C470.933666,168.432305 470.814924,169.083688 470.82,169.74 C470.802786,170.34096 470.966531,170.933229 471.29,171.44 C471.613816,171.910832 472.028638,172.312054 472.51,172.62 C473.057808,172.970354 473.641032,173.261966 474.25,173.49 L476.25,174.27 C476.916667,174.536667 477.583333,174.83 478.25,175.15 C478.887007,175.460288 479.473598,175.864833 479.99,176.35 C480.503707,176.843214 480.917879,177.430524 481.21,178.08 C481.541098,178.849829 481.701444,179.682263 481.68,180.52 C481.687261,181.794802 481.45665,183.059772 481,184.25 C480.562709,185.393875 479.899524,186.437966 479.05,187.32 C478.177241,188.215569 477.133182,188.926345 475.98,189.41 C474.697445,189.943889 473.319105,190.209348 471.93,190.19 C470.395126,190.210774 468.877113,189.868107 467.5,189.19 C466.237622,188.569641 465.138221,187.662036 464.29,186.54 L465.57,184.81 C465.673811,184.667088 465.806731,184.547801 465.96,184.46 C466.111433,184.370123 466.283914,184.321829 466.46,184.32 C466.771313,184.355945 467.055541,184.514249 467.25,184.76 C467.59358,185.114244 467.957532,185.448144 468.34,185.76 C468.83799,186.162154 469.38586,186.498271 469.97,186.76 C470.736965,187.074476 471.561425,187.224378 472.39,187.2 C473.213317,187.210603 474.031153,187.064683 474.8,186.77 C476.189704,186.255438 477.285438,185.159704 477.8,183.77 C478.080371,183.022113 478.219395,182.228658 478.21,181.43 C478.230881,180.806609 478.067391,180.190912 477.74,179.66 C477.42187,179.181681 477.00609,178.776124 476.52,178.47 C475.97499,178.129015 475.395013,177.847408 474.79,177.63 L472.79,176.9 C472.123333,176.653333 471.456667,176.376667 470.79,176.07 C470.155049,175.769775 469.571253,175.371579 469.06,174.89 C468.54094,174.38979 468.12627,173.791576 467.84,173.13 C467.505522,172.312071 467.345442,171.433335 467.37,170.55 C467.366246,169.427192 467.576672,168.31397 467.99,167.27 C468.39384,166.237798 468.998907,165.296205 469.77,164.5 C470.578223,163.675894 471.544076,163.022923 472.61,162.58 C473.804591,162.086 475.087435,161.841001 476.38,161.86 C477.704654,161.837501 479.017292,162.114385 480.22,162.67 C481.318577,163.182698 482.281162,163.9466 483.03,164.9 L481.93,166.4 Z" id="Shape" fill="#FFFFFF" fill-rule="nonzero"></path>
            <path d="M498.1,180.67 C497.947423,182.068038 497.611193,183.439858 497.1,184.75 C496.666639,185.858861 496.028924,186.876492 495.22,187.75 C494.463048,188.548216 493.541835,189.172594 492.52,189.58 C491.417234,190.007125 490.242462,190.217633 489.06,190.2 C487.78659,190.21089 486.518877,190.028825 485.3,189.66 L485.55,187.55 C485.584287,187.366925 485.663297,187.195164 485.78,187.05 C485.925053,186.898534 486.131119,186.821259 486.34,186.84 C486.492961,186.824892 486.647039,186.824892 486.8,186.84 L487.36,186.96 C487.57,186.96 487.82,187.04 488.1,187.08 C488.433045,187.099602 488.766955,187.099602 489.1,187.08 C489.74795,187.084245 490.391429,186.972483 491,186.75 C491.611809,186.517889 492.160059,186.144394 492.6,185.66 C493.120241,185.07328 493.527125,184.39514 493.8,183.66 C494.16662,182.695284 494.405317,181.686708 494.51,180.66 L496.8,162.01 L500.43,162.01 L498.1,180.67 Z" id="Shape" fill="#FFFFFF" fill-rule="nonzero"></path>
            <polygon id="Shape" fill="#FFFFFF" fill-rule="nonzero" points="512.43 165.06 511.29 174.43 521.12 174.43 520.75 177.28 510.94 177.28 509.76 186.94 522 186.94 521.63 189.89 505.74 189.89 509.15 162.1 525 162.1 524.63 165.1"></polygon>
            <path d="M216.51,79.1 C216.575298,83.8052344 215.577135,88.464465 213.59,92.73 C211.785709,96.6184781 209.174539,100.078449 205.93,102.88 C202.683124,105.647539 198.954245,107.793339 194.93,109.21 C190.861341,110.648441 186.57542,111.375728 182.26,111.36 L159.36,111.36 L159.91,108.92 C160.576667,108.92 161.483333,108.856667 162.63,108.73 C163.47991,108.673482 164.319593,108.512263 165.13,108.25 C165.923759,107.966852 166.618446,107.45973 167.13,106.79 C167.602042,106.120322 167.922788,105.355991 168.07,104.55 L176.8,66.78 C176.873333,66.4866667 176.94,66.1533333 177,65.78 C177.053562,65.4929233 177.083662,65.201962 177.09,64.91 C177.09935,64.4220842 177.003866,63.937845 176.81,63.49 C176.562319,63.0344175 176.162322,62.680438 175.68,62.49 C174.918478,62.1552045 174.124207,61.9005016 173.31,61.73 C172.37,61.5233333 171.653333,61.38 171.16,61.3 L171.72,58.86 L194,58.86 C196.445192,58.8875842 198.878624,59.2030912 201.25,59.8 C203.869004,60.4171606 206.355387,61.5011424 208.59,63 C211.007179,64.6326075 212.982603,66.8382113 214.34,69.42 C215.864787,72.413226 216.611077,75.7422984 216.51,79.1 Z M207.82,79.15 C207.82,73.6233333 206.34,69.33 203.38,66.27 C200.42,63.21 196.483333,61.68 191.57,61.68 C190.556667,61.68 189.506667,61.7 188.42,61.74 L185.87,61.83 L176.48,102.59 C176.406667,102.936667 176.346667,103.27 176.3,103.59 C176.253087,103.894415 176.229685,104.201991 176.23,104.51 C176.136495,105.83636 176.87294,107.082345 178.08,107.64 C180.017289,108.365034 182.085267,108.675061 184.15,108.55 C187.644467,108.582999 191.088495,107.715104 194.15,106.03 C197.130173,104.38889 199.703546,102.09917 201.68,99.33 C203.720287,96.4580895 205.271239,93.2683305 206.27,89.89 C207.304502,86.4040522 207.826631,82.7862045 207.82,79.15 L207.82,79.15 Z" id="Shape" fill="#333333" fill-rule="nonzero"></path>
            <path d="M251.85,81.7 C251.900632,84.1750666 251.023065,86.5794579 249.39,88.44 C247.427199,90.5228649 244.961486,92.0656577 242.23,92.92 C239.943915,93.7421382 237.605352,94.410299 235.23,94.92 C232.883333,95.44 230.293333,95.8733333 227.46,96.22 C227.46,100.12 228.18,103.096667 229.62,105.15 C231.058068,107.210936 233.460847,108.380162 235.97,108.24 C238.281956,108.284483 240.554932,107.640531 242.5,106.39 C244.66186,104.889893 246.546568,103.025487 248.07,100.88 L250.18,102.43 C248.286634,105.359007 245.757253,107.823443 242.78,109.64 C240.021829,111.3812 236.831707,112.316415 233.57,112.34 C229.203333,112.34 225.87,111.116667 223.57,108.67 C221.27,106.223333 220.116667,102.753333 220.11,98.26 C220.095387,95.2292842 220.588891,92.2175559 221.57,89.35 C222.535182,86.536447 223.979815,83.9110707 225.84,81.59 C227.666653,79.29378 229.951932,77.4035718 232.55,76.04 C235.277807,74.6360558 238.312794,73.9348809 241.38,74 C244.933333,74 247.566667,74.7233333 249.28,76.17 C250.945229,77.5171201 251.893961,79.5585546 251.85,81.7 L251.85,81.7 Z M245,80.79 C245.033983,80.0122493 244.89391,79.2367217 244.59,78.52 C244.374501,78.0241029 244.028987,77.5956647 243.59,77.28 C243.166815,76.9939674 242.685089,76.8060602 242.18,76.73 C241.676777,76.6555555 241.168698,76.6187866 240.66,76.62 C237.7,76.62 234.97,78.2433333 232.47,81.49 C229.843051,85.0503275 228.204323,89.2420203 227.72,93.64 C229.446667,93.3933333 231.396667,93.0433333 233.57,92.59 C235.451767,92.2383122 237.277985,91.6362991 239,90.8 C240.876209,89.8960804 242.459978,88.4821243 243.57,86.72 C244.582233,84.9121779 245.076992,82.8604852 245,80.79 L245,80.79 Z" id="Shape" fill="#333333" fill-rule="nonzero"></path>
            <path d="M316.06,60.93 C317.357671,61.6167308 318.453756,62.6300928 319.24,63.87 C320.02304,65.1543918 320.422089,66.6360771 320.39,68.14 C320.43551,70.1922106 319.97894,72.2244649 319.06,74.06 C318.208823,75.7150543 317.023911,77.1757653 315.58,78.35 C314.080979,79.5591518 312.417671,80.5490556 310.64,81.29 C308.843561,82.049841 306.973718,82.6228572 305.06,83 L305.06,83.33 C306.5695,83.5152675 308.056825,83.8502505 309.5,84.33 C310.969469,84.8007862 312.366216,85.4739176 313.65,86.33 C314.954977,87.1918636 316.048778,88.3369373 316.85,89.68 C317.705317,91.1575995 318.134526,92.8432826 318.09,94.55 C318.142325,97.1425557 317.470485,99.6983182 316.15,101.93 C314.912663,104.00106 313.236728,105.775981 311.24,107.13 C309.148646,108.544774 306.842184,109.611893 304.41,110.29 C301.967332,110.963949 299.443915,111.300405 296.91,111.29 L271.25,111.29 L271.84,108.85 C272.433333,108.803333 273.32,108.7 274.5,108.54 C275.370047,108.45459 276.226394,108.263171 277.05,107.97 C277.835295,107.690995 278.527685,107.199398 279.05,106.55 C279.535942,105.896096 279.876856,105.146085 280.05,104.35 L288.86,66.24 C288.906667,65.9933333 288.95,65.7533333 288.99,65.52 C289.028805,65.2819392 289.048867,65.0412001 289.05,64.8 C289.062661,64.3310087 288.955992,63.8664858 288.74,63.45 C288.484401,63.0155226 288.104842,62.6673026 287.65,62.45 C286.937227,62.0563783 286.173272,61.7635852 285.38,61.58 C284.643465,61.4058032 283.894568,61.2887881 283.14,61.23 L283.73,58.79 L306.89,58.79 C308.534592,58.7794209 310.176111,58.9335228 311.79,59.25 C313.292548,59.5828724 314.733455,60.1497869 316.06,60.93 L316.06,60.93 Z M305.8,103.36 C306.859709,101.909415 307.673886,100.294574 308.21,98.58 C308.742527,96.928499 309.019064,95.2052006 309.03,93.47 C309.144839,91.0962178 308.159953,88.8018378 306.36,87.25 C304.58,85.75 302.08,85 298.86,85 C297.3,85 295.966667,85.02 294.86,85.06 L292.34,85.15 L288.15,103.26 C288.076667,103.613333 288.02,103.946667 287.98,104.26 C287.942482,104.541824 287.922444,104.8257 287.92,105.11 C287.903452,106.375443 288.71494,107.503412 289.92,107.89 C291.512197,108.50796 293.213042,108.797104 294.92,108.74 C299.207777,108.848708 303.277961,106.854691 305.82,103.4 L305.8,103.36 Z M308.21,78 C309.315296,76.7393003 310.164442,75.2753738 310.71,73.69 C311.23934,72.0221006 311.495974,70.2796898 311.47,68.53 C311.502969,67.3791997 311.259495,66.2372721 310.76,65.2 C310.319099,64.3111945 309.653838,63.5528657 308.83,63 C307.999479,62.4768227 307.081477,62.1075893 306.12,61.91 C305.093685,61.6979594 304.047974,61.5940586 303,61.6 C302.186667,61.6 301.276667,61.62 300.27,61.66 L297.73,61.75 L293.05,82.17 L297.68,82.17 C299.844763,82.2194317 301.996397,81.8211072 304,81 C305.616118,80.3384261 307.057088,79.3116062 308.21,78 L308.21,78 Z" id="Shape" fill="#333333" fill-rule="nonzero"></path>
            <path d="M357.57,80 C357.559273,80.7690999 357.458589,81.534303 357.27,82.28 C357.112897,83.0090906 356.824906,83.7036567 356.42,84.33 C356.05196,84.9369038 355.569726,85.4666819 355,85.89 C353.299428,86.7546037 351.25506,86.576158 349.73,85.43 C349.105904,84.8587562 348.744274,84.0559382 348.73,83.21 C348.753419,82.3267629 348.939884,81.4554615 349.28,80.64 C349.653333,79.6933333 350.036667,78.75 350.43,77.81 C349.936446,77.8402087 349.447253,77.920624 348.97,78.05 C348.118557,78.2738777 347.293777,78.5890377 346.51,78.99 C345.353096,79.5837965 344.257764,80.2905705 343.24,81.1 C341.829488,82.222571 340.527141,83.4746985 339.35,84.84 L333.35,111.36 L326.45,111.36 L331.85,87.36 C331.97,86.7666667 332.15,85.8766667 332.39,84.69 C332.583456,83.8252738 332.700573,82.9452243 332.74,82.06 C332.858154,81.0786747 332.608793,80.088353 332.04,79.28 C331.22122,78.7091946 330.220868,78.4599966 329.23,78.58 C328.532117,78.6008144 327.838333,78.6946596 327.16,78.86 C326.32,79.0466667 325.653333,79.2 325.16,79.32 L325.72,76.95 C327.372019,76.1891523 329.076373,75.5475132 330.82,75.03 C332.055785,74.6491741 333.337404,74.4372529 334.63,74.4 C336.63,74.4 338.036667,74.9366667 338.85,76.01 C339.789796,77.4375985 340.232659,79.1352392 340.11,80.84 L340.33,80.84 C342.451509,78.9395252 344.678369,77.1600408 347,75.51 C348.409249,74.5303221 350.083685,74.0035724 351.8,74 C352.573146,73.9997697 353.343003,74.1006244 354.09,74.3 C354.791194,74.4766406 355.439495,74.8196569 355.98,75.3 C356.509175,75.7991254 356.919298,76.4108922 357.18,77.09 C357.475453,78.0305607 357.607366,79.0148349 357.57,80 Z" id="Shape" fill="#333333" fill-rule="nonzero"></path>
            <path d="M383.78,106.18 L383.56,106.18 C382.426667,107.093333 381.34,107.933333 380.3,108.7 C379.330305,109.422015 378.3036,110.064124 377.23,110.62 C376.198349,111.152513 375.116375,111.581282 374,111.9 C372.764878,112.18888 371.498102,112.319925 370.23,112.29 C368.186441,112.414146 366.185457,111.669678 364.72,110.24 C363.363472,108.784569 362.643601,106.848117 362.72,104.86 C362.728198,104.154318 362.778286,103.449745 362.87,102.75 C362.97,101.936667 363.203333,100.726667 363.57,99.12 L366.44,87.39 C366.686667,86.3033333 366.89,85.34 367.05,84.5 C367.205246,83.7093201 367.285601,82.9057646 367.29,82.1 C367.408895,81.1277744 367.166938,80.1457159 366.61,79.34 C365.793892,78.7810213 364.801785,78.5392175 363.82,78.66 C363.120292,78.6824737 362.425595,78.7865104 361.75,78.97 L359.75,79.47 L360.3,77.09 C361.952787,76.3166489 363.65285,75.6486478 365.39,75.09 C366.529381,74.7020661 367.717716,74.4765181 368.92,74.42 C370.497291,74.2851726 372.063151,74.7855279 373.27,75.81 C374.250214,76.8794442 374.752161,78.3022307 374.66,79.75 C374.646435,80.3558003 374.596344,80.960231 374.51,81.56 C374.410533,82.3316501 374.263587,83.0964341 374.07,83.85 L370.81,97.54 C370.563333,98.5733333 370.36,99.54 370.2,100.44 C370.064557,101.115697 369.984292,101.80129 369.96,102.49 C369.884289,103.877898 370.259647,105.253043 371.03,106.41 C371.860745,107.415663 373.129666,107.953089 374.43,107.85 C376.124465,107.820815 377.788683,107.3962 379.29,106.61 C381.148728,105.63482 382.837254,104.365049 384.29,102.85 L390.82,75 L397.27,74.56 L397.72,75.12 L392.22,99 C391.973333,100.013333 391.753333,101.03 391.56,102.05 C391.401569,102.760669 391.301238,103.483054 391.26,104.21 C391.12955,105.25192 391.457948,106.299143 392.16,107.08 C393.045529,107.66474 394.102878,107.932602 395.16,107.84 C395.831436,107.819675 396.500201,107.746111 397.16,107.62 C397.839309,107.518219 398.508491,107.357615 399.16,107.14 L398.61,109.51 C396.563333,110.35 394.856667,110.98 393.49,111.4 C392.264842,111.796553 390.987563,112.008871 389.7,112.03 C388.025423,112.162885 386.382168,111.521795 385.24,110.29 C384.265918,109.145322 383.746335,107.682662 383.78,106.18 L383.78,106.18 Z" id="Shape" fill="#333333" fill-rule="nonzero"></path>
            <path d="M422,107.33 L421.45,109.7 C419.672319,110.440064 417.852484,111.074502 416,111.6 C414.867354,111.925761 413.698105,112.107196 412.52,112.14 C410.89044,112.264897 409.282246,111.7071 408.08,110.6 C407.095742,109.583889 406.562265,108.21415 406.6,106.8 C406.602699,106.203627 406.652857,105.608414 406.75,105.02 C406.85,104.4 407.01,103.623333 407.23,102.69 L411.11,87 C411.31,86.14 411.5,85.2133333 411.68,84.22 C411.849363,83.3901982 411.943081,82.54674 411.96,81.7 C412.078895,80.7277744 411.836938,79.7457159 411.28,78.94 C410.46524,78.3775112 409.473023,78.1321242 408.49,78.25 C407.763662,78.2717392 407.04075,78.3587564 406.33,78.51 C405.43,78.6833333 404.763333,78.83 404.33,78.95 L404.89,76.58 C406.541674,75.7992174 408.249845,75.1440285 410,74.62 C411.175371,74.2585979 412.391641,74.0469265 413.62,73.99 C415.222554,73.8421185 416.814956,74.363268 418.02,75.43 C418.97143,76.495473 419.463781,77.8934628 419.39,79.32 C419.376386,79.9257978 419.326296,80.5302256 419.24,81.13 C419.141015,81.9050244 418.994066,82.6731651 418.8,83.43 L414.87,99.17 C414.623333,100.13 414.41,101.073333 414.23,102 C414.065106,102.749492 413.971357,103.512881 413.95,104.28 C413.822833,105.334718 414.166693,106.391906 414.89,107.17 C415.775279,107.756731 416.831051,108.031232 417.89,107.95 C418.560084,107.930152 419.228165,107.866684 419.89,107.76 C420.606491,107.691223 421.313734,107.547092 422,107.33 Z M424.59,60 C424.608389,61.3546189 424.119743,62.6671857 423.22,63.68 C422.383291,64.6917206 421.132742,65.2691801 419.82,65.25 C418.565772,65.2530471 417.373631,64.7045158 416.56,63.75 C415.678525,62.8298823 415.187539,61.6042088 415.19,60.33 C415.174683,59.014794 415.665122,57.7439479 416.56,56.78 C417.367265,55.8146705 418.561615,55.2577959 419.82,55.26 C421.117846,55.2147934 422.371945,55.7324741 423.26,56.68 C424.123525,57.5681548 424.601505,58.7613061 424.59,60 L424.59,60 Z" id="Shape" fill="#333333" fill-rule="nonzero"></path>
            <path d="M467,107.07 L466.44,109.44 C464.213333,110.326667 462.48,110.973333 461.24,111.38 C460.030611,111.782347 458.76456,111.988291 457.49,111.99 C455.854317,112.115684 454.23965,111.558153 453.03,110.45 C452.044769,109.434514 451.511126,108.064348 451.55,106.65 C451.555048,106.047099 451.605187,105.44542 451.7,104.85 C451.8,104.183333 451.96,103.41 452.18,102.53 L455.83,88.72 C456.103333,87.66 456.32,86.6966667 456.48,85.83 C456.619873,85.1482648 456.700176,84.4556539 456.72,83.76 C456.800757,82.3520325 456.382977,80.9606121 455.54,79.83 C454.667279,78.8286726 453.374898,78.2954268 452.05,78.39 C450.288273,78.4723289 448.572698,78.980139 447.05,79.87 C445.051757,80.9702052 443.272305,82.4276616 441.8,84.17 L435.48,111.35 L428.57,111.35 L434.12,87.35 L434.66,84.78 C434.865402,83.8869725 434.982631,82.9759361 435.01,82.06 C435.128154,81.0786747 434.878793,80.088353 434.31,79.28 C433.487357,78.7093842 432.483992,78.4603219 431.49,78.58 C430.78883,78.6009203 430.091742,78.6947591 429.41,78.86 C428.57,79.0466667 427.903333,79.2 427.41,79.32 L428,77 C429.65034,76.2130486 431.354655,75.5446896 433.1,75 C434.342635,74.6191847 435.630857,74.4072841 436.93,74.37 C438.89,74.37 440.29,74.9 441.13,75.96 C442.045812,77.2444491 442.516401,78.793178 442.47,80.37 L442.69,80.37 C444.873269,78.5526818 447.216107,76.9361241 449.69,75.54 C451.76661,74.4745334 454.07665,73.9451493 456.41,74 C458.448112,73.8696959 460.448365,74.5944253 461.93,76 C463.293898,77.4549008 464.014741,79.3975708 463.93,81.39 C463.93,81.8366667 463.863333,82.6266667 463.73,83.76 C463.593132,84.8972648 463.375922,86.0234132 463.08,87.13 L460,99.07 C459.78,99.8633333 459.563333,100.77 459.35,101.79 C459.171613,102.575123 459.067818,103.375347 459.04,104.18 C458.912084,105.226955 459.252356,106.277042 459.97,107.05 C460.858667,107.627599 461.913518,107.894828 462.97,107.81 C463.642186,107.78582 464.311178,107.705541 464.97,107.57 C465.659169,107.458966 466.338099,107.291741 467,107.07 L467,107.07 Z" id="Shape" fill="#333333" fill-rule="nonzero"></path>
            <path d="M508,80.84 C507.982597,84.7083932 507.410094,88.5542666 506.3,92.26 C505.28856,95.8605363 503.71593,99.2791504 501.64,102.39 C499.759142,105.260371 497.333312,107.733767 494.5,109.67 C491.822752,111.508604 488.647751,112.485528 485.4,112.47 C482.573095,112.614242 479.800945,111.653134 477.67,109.79 C475.710531,107.921031 474.656492,105.295053 474.78,102.59 C474.786551,101.94185 474.853507,101.295721 474.98,100.66 C475.113333,99.9466667 475.206667,99.4666667 475.26,99.22 L478.48,87.37 C478.726667,86.41 478.943333,85.4666667 479.13,84.54 C479.301922,83.740998 479.395698,82.927164 479.41,82.11 C479.529281,81.1256863 479.272095,80.1326622 478.69,79.33 C477.862739,78.7612625 476.857003,78.512494 475.86,78.63 C475.147014,78.6584909 474.439373,78.765811 473.75,78.95 L471.75,79.45 L472.3,77.1 C473.970323,76.3357247 475.68314,75.6679597 477.43,75.1 C478.580495,74.6974872 479.782691,74.4617624 481,74.4 C482.585673,74.2696573 484.159906,74.7609325 485.39,75.77 C486.409976,76.8416716 486.92939,78.29458 486.82,79.77 C486.812497,80.3720512 486.769087,80.9731187 486.69,81.57 C486.588897,82.3494862 486.435214,83.1212458 486.23,83.88 L482.67,97.69 C482.43157,98.578483 482.244593,99.4799805 482.11,100.39 C482.017044,100.942896 481.953621,101.500353 481.92,102.06 C481.877256,103.136567 482.086119,104.208271 482.53,105.19 C482.884348,105.928831 483.412826,106.570555 484.07,107.06 C484.654494,107.476804 485.312822,107.778821 486.01,107.95 C486.716837,108.123692 487.442135,108.210996 488.17,108.21 C490.015438,108.161298 491.812899,107.61169 493.37,106.62 C495.17646,105.542413 496.764071,104.134596 498.05,102.47 C499.520707,100.588644 500.70363,98.49915 501.56,96.27 C502.471101,93.8515693 502.922178,91.2841586 502.89,88.7 C502.949963,87.5251671 502.741345,86.3521222 502.28,85.27 C501.909455,84.5251082 501.456632,83.8240701 500.93,83.18 C500.437232,82.5641693 499.986224,81.9160548 499.58,81.24 C499.125662,80.354388 498.915128,79.3638413 498.97,78.37 C498.895648,77.132519 499.420188,75.9346326 500.38,75.15 C501.21946,74.4406195 502.280977,74.0478583 503.38,74.04 C504.745762,74.0041034 506.035381,74.667767 506.8,75.8 C507.697262,77.3212888 508.11543,79.0775942 508,80.84 Z" id="Shape" fill="#333333" fill-rule="nonzero"></path>
            <path d="M531.09,107.33 L530.54,109.7 C528.765802,110.443085 526.949314,111.080859 525.1,111.61 C523.967354,111.935761 522.798105,112.117196 521.62,112.15 C519.99044,112.274897 518.382246,111.7171 517.18,110.61 C516.195742,109.593889 515.662265,108.22415 515.7,106.81 C515.702699,106.213627 515.752857,105.618414 515.85,105.03 C515.95,104.41 516.11,103.633333 516.33,102.7 L520.24,87 C520.44,86.14 520.63,85.2133333 520.81,84.22 C520.979363,83.3901982 521.073081,82.54674 521.09,81.7 C521.208895,80.7277744 520.966938,79.7457159 520.41,78.94 C519.59524,78.3775112 518.603023,78.1321242 517.62,78.25 C516.893662,78.2717392 516.17075,78.3587564 515.46,78.51 C514.56,78.6833333 513.893333,78.83 513.46,78.95 L514.02,76.58 C515.695478,75.8095651 517.427142,75.167713 519.2,74.66 C520.375371,74.2985979 521.591641,74.0869265 522.82,74.03 C524.422554,73.8821185 526.014956,74.403268 527.22,75.47 C528.17143,76.535473 528.663781,77.9334628 528.59,79.36 C528.576386,79.9657978 528.526296,80.5702256 528.44,81.17 C528.341015,81.9450244 528.194066,82.7131651 528,83.47 L524,99.18 C523.753333,100.14 523.54,101.083333 523.36,102.01 C523.195106,102.759492 523.101357,103.522881 523.08,104.29 C522.952833,105.344718 523.296693,106.401906 524.02,107.18 C524.905279,107.766731 525.961051,108.041232 527.02,107.96 C527.690084,107.940152 528.358165,107.876684 529.02,107.77 C529.723344,107.695218 530.417048,107.547764 531.09,107.33 L531.09,107.33 Z M533.72,60 C533.738389,61.3546189 533.249743,62.6671857 532.35,63.68 C531.513291,64.6917206 530.262742,65.2691801 528.95,65.25 C527.695772,65.2530471 526.503631,64.7045158 525.69,63.75 C524.808525,62.8298823 524.317539,61.6042088 524.32,60.33 C524.304683,59.014794 524.795122,57.7439479 525.69,56.78 C526.497265,55.8146705 527.691615,55.2577959 528.95,55.26 C530.247846,55.2147934 531.501945,55.7324741 532.39,56.68 C533.253525,57.5681548 533.731505,58.7613061 533.72,60 L533.72,60 Z" id="Shape" fill="#333333" fill-rule="nonzero"></path>
            <path d="M547,112.47 C543.846919,112.580876 540.714954,111.914647 537.88,110.53 C535.453333,109.236667 534.24,107.54 534.24,105.44 C534.251397,104.414935 534.63119,103.428182 535.31,102.66 C535.936314,101.84191 536.909704,101.364468 537.94,101.37 C538.789841,101.327036 539.630063,101.566095 540.33,102.05 C540.910164,102.482057 541.393802,103.030407 541.75,103.66 C542.16358,104.38572 542.498799,105.153372 542.75,105.95 C543.036667,106.836667 543.276667,107.563333 543.47,108.13 C543.911593,108.606363 544.432696,109.002266 545.01,109.3 C545.895476,109.707173 546.86681,109.892516 547.84,109.84 C550.506667,109.84 552.506667,109.173333 553.84,107.84 C555.250172,106.398841 555.99346,104.433658 555.89,102.42 C555.934831,100.854563 555.219449,99.3641828 553.97,98.42 C552.224838,97.1910466 550.288827,96.2585177 548.24,95.66 C547.129171,95.2799773 546.046492,94.8221776 545,94.29 C543.909246,93.791614 542.898286,93.1344902 542,92.34 C541.108728,91.5469396 540.378736,90.5894619 539.85,89.52 C539.282515,88.3141605 539.005118,86.9922431 539.04,85.66 C539.082354,82.4085225 540.653242,79.3667791 543.28,77.45 C546.255274,75.0822103 549.980184,73.8583113 553.78,74 C554.74,74 555.776667,74.05 556.89,74.15 C558.137176,74.2778211 559.365355,74.5496313 560.55,74.96 C561.668196,75.3168189 562.692967,75.9180181 563.55,76.72 C564.361407,77.5032943 564.804443,78.592727 564.77,79.72 C564.775943,80.7297239 564.421342,81.7084227 563.77,82.48 C563.102775,83.318577 562.0699,83.7809467 561,83.72 C560.204745,83.7525611 559.417857,83.5471344 558.74,83.13 C558.13257,82.7189805 557.626492,82.1752892 557.26,81.54 C556.846706,80.8633098 556.511243,80.1420628 556.26,79.39 C556.013333,78.6233333 555.743333,77.87 555.45,77.13 C555.044721,76.9516643 554.62262,76.814314 554.19,76.72 C553.70124,76.6367369 553.205699,76.5999061 552.71,76.61 C550.68818,76.466255 548.698147,77.1730973 547.22,78.56 C546.002809,79.7872285 545.329117,81.4516463 545.35,83.18 C545.247434,84.6778675 545.872829,86.1334008 547.03,87.09 C548.743738,88.2640446 550.620365,89.1804588 552.6,89.81 C555.346188,90.6422002 557.873567,92.0732431 560,94 C561.504064,95.542423 562.322463,97.6262767 562.27,99.78 C562.356278,103.349049 560.750868,106.748959 557.94,108.95 C554.825435,111.382209 550.948502,112.629632 547,112.47 L547,112.47 Z" id="Shape" fill="#333333" fill-rule="nonzero"></path>
        </g>
    </g>
</svg>